<svg width="191" height="185" viewBox="0 0 191 185" fill="none" xmlns="http://www.w3.org/2000/svg">
<g clip-path="url(#clip0_2723_33573)">
<path d="M105.762 53.9756C102.48 48.3345 97.9928 45.2388 93.1042 45.2388C88.2157 45.2388 83.7287 48.3482 80.4466 53.9756L16.9646 163.234C13.6824 168.875 13.2254 174.282 15.6766 178.492C18.114 182.689 23.0718 185.014 29.6222 185.014H156.6C163.15 185.014 168.108 182.702 170.546 178.492C172.983 174.296 172.526 168.875 169.258 163.234L105.762 53.9756ZM167 176.456C165.325 179.345 161.627 180.941 156.6 180.941H29.6222C24.5951 180.941 20.8976 179.345 19.2219 176.456C17.5462 173.567 18.0032 169.59 20.5098 165.27L84.0057 56.0119C86.5123 51.6916 89.7528 49.3114 93.1181 49.3114C96.4833 49.3114 99.71 51.6916 102.23 56.0119L165.726 165.27C168.233 169.59 168.704 173.567 167.014 176.456H167Z" fill="#161616"/>
<path d="M93.1042 147.893C86.9554 147.893 81.9561 152.859 81.9561 158.968C81.9561 165.077 86.9554 170.044 93.1042 170.044C99.253 170.044 104.252 165.077 104.252 158.968C104.252 152.859 99.253 147.893 93.1042 147.893ZM93.1042 165.972C89.2127 165.972 86.0552 162.835 86.0552 158.968C86.0552 155.102 89.2127 151.965 93.1042 151.965C96.9956 151.965 100.153 155.102 100.153 158.968C100.153 162.835 96.9956 165.972 93.1042 165.972Z" fill="#161616"/>
<path d="M93.1042 78.2598C86.0552 78.2598 80.3219 83.9559 80.3219 90.9591C80.3219 93.1605 81.6098 102.406 83.7287 117.307C84.7258 124.31 85.7506 131.547 86.6092 137.986C86.7477 139.005 87.6063 139.748 88.6449 139.748H97.5911C98.6159 139.748 99.4884 138.991 99.6269 137.986C100.485 131.547 101.51 124.31 102.507 117.307C104.612 102.406 105.914 93.1467 105.914 90.9591C105.914 83.9559 100.181 78.2598 93.1319 78.2598H93.1042ZM98.422 116.743C97.5219 123.127 96.594 129.69 95.777 135.689H90.4175C89.6005 129.69 88.6726 123.113 87.7725 116.743C86.1106 105.062 84.4072 92.9816 84.4072 90.9591C84.4072 86.1986 88.2987 82.3324 93.0903 82.3324C97.8819 82.3324 101.773 86.1986 101.773 90.9591C101.773 92.9816 100.07 105.062 98.4082 116.743H98.422Z" fill="#161616"/>
<path d="M156.822 18.7256L156.102 18.1065C155.243 17.3773 153.969 17.4736 153.221 18.3129L151.351 20.4317C135.398 7.66362 115.137 0 93.1042 0C41.7674 0 0 41.4964 0 92.5C0 93.6282 0.914008 94.5363 2.04959 94.5363H23.9442C25.0798 94.5363 25.9938 93.6282 25.9938 92.5C25.9938 55.7367 56.1007 25.8252 93.1042 25.8252C108.587 25.8252 122.851 31.0672 134.221 39.8591L132.476 41.8403C132.116 42.2531 131.936 42.7897 131.977 43.3263C132.019 43.8766 132.282 44.3719 132.697 44.7297L133.431 45.3626C139.497 50.4946 144.441 56.631 148.083 63.4278L142.447 66.1795C141.436 66.6748 141.007 67.8994 141.505 68.9038C141.865 69.6192 142.585 70.0457 143.347 70.0457C143.652 70.0457 143.956 69.9769 144.247 69.8394L149.883 67.0876C153.484 74.9851 155.409 83.6394 155.409 92.5138C155.409 93.642 156.323 94.55 157.459 94.55H188.937C190.072 94.55 190.986 93.642 190.986 92.5138C190.986 64.1708 178.536 37.2724 156.808 18.7394L156.822 18.7256ZM93.1042 21.7663C54.522 21.7663 23.0164 52.407 21.9223 90.4775H4.12689C5.22093 42.6383 44.7172 4.07259 93.1042 4.07259C114.113 4.07259 133.417 11.351 148.665 23.4862L136.921 36.8046C124.831 27.3936 109.626 21.7526 93.1042 21.7526V21.7663ZM159.481 90.4775C159.204 81.6856 157.154 73.1414 153.567 65.299L159.591 62.3684C160.602 61.873 161.032 60.6485 160.533 59.6441C160.035 58.6397 158.802 58.2132 157.791 58.7085L151.781 61.6391C148.055 54.6635 143.056 48.3344 136.935 42.9961L154.98 22.5368C174.769 39.8315 186.319 64.4322 186.887 90.4912H159.494L159.481 90.4775Z" fill="#161616"/>
</g>
<defs>
<clipPath id="clip0_2723_33573">
<rect width="191" height="185" fill="white"/>
</clipPath>
</defs>
</svg>
