<svg width="194" height="194" viewBox="0 0 194 194" fill="none" xmlns="http://www.w3.org/2000/svg">
<path d="M97.0386 123.37V191.077" stroke="#161616" stroke-width="5" stroke-linecap="round" stroke-linejoin="round"/>
<path d="M119.608 74.4697V187.316C119.608 189.385 117.915 191.077 115.846 191.077H78.2308C76.1619 191.077 74.4692 189.385 74.4692 187.316V74.4697" stroke="#161616" stroke-width="5" stroke-linecap="round" stroke-linejoin="round"/>
<path d="M119.607 127.131C127.92 127.131 134.654 120.398 134.654 112.085V64.05C134.654 58.3701 130.967 53.292 125.588 51.4864C123.143 50.6589 115.846 48.1387 115.846 48.1387L97.0382 66.9464L78.2305 48.1387C78.2305 48.1387 70.9332 50.6589 68.4882 51.4864C63.1092 53.292 59.4229 58.3701 59.4229 64.05V112.085C59.4229 120.398 66.156 127.131 74.469 127.131" stroke="#161616" stroke-width="5" stroke-linejoin="round"/>
<path d="M40.6152 119.607V183.554" stroke="#161616" stroke-width="5" stroke-linecap="round" stroke-linejoin="round"/>
<path d="M59.4233 183.554H21.8079C19.7391 183.554 18.0464 181.862 18.0464 179.793V74.4697" stroke="#161616" stroke-width="5" stroke-linecap="round" stroke-linejoin="round"/>
<path d="M18.0462 123.369C9.73315 123.369 3 116.636 3 108.323V64.05C3 58.3701 6.68631 53.292 12.0653 51.4864C14.5103 50.6589 21.8077 48.1387 21.8077 48.1387L40.6154 66.9464L44.3769 63.1848" stroke="#161616" stroke-width="5" stroke-linecap="round" stroke-linejoin="round"/>
<path d="M40.6153 40.6154C51.0025 40.6154 59.423 32.1949 59.423 21.8077C59.423 11.4205 51.0025 3 40.6153 3C30.2281 3 21.8076 11.4205 21.8076 21.8077C21.8076 32.1949 30.2281 40.6154 40.6153 40.6154Z" stroke="#161616" stroke-width="5" stroke-linejoin="round"/>
<path d="M153.461 119.607V183.554" stroke="#161616" stroke-width="5" stroke-linecap="round" stroke-linejoin="round"/>
<path d="M134.654 183.554H172.269C174.338 183.554 176.031 181.862 176.031 179.793V74.4697" stroke="#161616" stroke-width="5" stroke-linecap="round" stroke-linejoin="round"/>
<path d="M176.031 123.369C184.344 123.369 191.077 116.636 191.077 108.323V64.05C191.077 58.3701 187.391 53.292 182.012 51.4864C179.567 50.6589 172.269 48.1387 172.269 48.1387L153.462 66.9464L149.7 63.1848" stroke="#161616" stroke-width="5" stroke-linecap="round" stroke-linejoin="round"/>
<path d="M153.462 40.6154C163.849 40.6154 172.269 32.1949 172.269 21.8077C172.269 11.4205 163.849 3 153.462 3C143.074 3 134.654 11.4205 134.654 21.8077C134.654 32.1949 143.074 40.6154 153.462 40.6154Z" stroke="#161616" stroke-width="5" stroke-linejoin="round"/>
<path d="M97.0382 40.6154C107.425 40.6154 115.846 32.1949 115.846 21.8077C115.846 11.4205 107.425 3 97.0382 3C86.651 3 78.2305 11.4205 78.2305 21.8077C78.2305 32.1949 86.651 40.6154 97.0382 40.6154Z" stroke="#161616" stroke-width="5" stroke-linejoin="round"/>
</svg>
