<svg width="240" height="189" viewBox="0 0 240 189" fill="none" xmlns="http://www.w3.org/2000/svg">
<path d="M113 109C136.748 109 156 89.5244 156 65.5C156 41.4756 136.748 22 113 22C89.2518 22 70 41.4756 70 65.5C70 89.5244 89.2518 109 113 109Z" stroke="#161616" stroke-width="5" stroke-linecap="round" stroke-linejoin="round"/>
<path d="M39.5655 109.911C46.0116 107.25 49.0726 99.8869 46.4026 93.4641C43.7325 87.0412 36.3424 83.9912 29.8963 86.6516C23.4502 89.312 20.3891 96.6755 23.0592 103.098C25.7292 109.521 33.1194 112.571 39.5655 109.911Z" stroke="#161616" stroke-width="5" stroke-linecap="round" stroke-linejoin="round"/>
<path d="M191 98C198.732 98 205 91.9558 205 84.5C205 77.0442 198.732 71 191 71C183.268 71 177 77.0442 177 84.5C177 91.9558 183.268 98 191 98Z" stroke="#161616" stroke-width="5" stroke-linecap="round" stroke-linejoin="round"/>
<path d="M127 130H180" stroke="#161616" stroke-width="5" stroke-linecap="round" stroke-linejoin="round"/>
<path d="M45 130H101" stroke="#161616" stroke-width="5" stroke-linecap="round" stroke-linejoin="round"/>
<path d="M202.216 128C222.186 123.152 237 105.299 237 84.0219C237 59.0141 216.538 38.744 191.293 38.744C184.641 38.744 178.329 40.1608 172.628 42.6953C163.227 19.4357 140.265 3 113.426 3C78.2162 3 49.678 31.2703 49.678 66.1499C49.678 67.3977 49.7173 68.6325 49.7895 69.8608C45.3349 67.5147 40.2571 66.1824 34.8578 66.1824C17.2625 66.1824 3 80.311 3 97.7411C3 110.817 11.0235 122.028 22.4585 126.824" stroke="#161616" stroke-width="5" stroke-linecap="round" stroke-linejoin="round"/>
<path d="M48 158H20V186H48V158Z" stroke="#161616" stroke-width="5" stroke-linecap="round" stroke-linejoin="round"/>
<path d="M128 158H99V186H128V158Z" stroke="#161616" stroke-width="5" stroke-linecap="round" stroke-linejoin="round"/>
<path d="M205 158H177V186H205V158Z" stroke="#161616" stroke-width="5" stroke-linecap="round" stroke-linejoin="round"/>
<path d="M35 148V119" stroke="#161616" stroke-width="5" stroke-linecap="round" stroke-linejoin="round"/>
<path d="M112 148V119" stroke="#161616" stroke-width="5" stroke-linecap="round" stroke-linejoin="round"/>
<path d="M192 148V110" stroke="#161616" stroke-width="5" stroke-linecap="round" stroke-linejoin="round"/>
<path d="M59 171H89" stroke="#161616" stroke-width="5" stroke-linecap="round" stroke-linejoin="round"/>
<path d="M137 171H166" stroke="#161616" stroke-width="5" stroke-linecap="round" stroke-linejoin="round"/>
<path d="M134 78.0016V53.9984L113 42L92 53.9984V78.0016L113 90L134 78.0016Z" stroke="#161616" stroke-width="5" stroke-linecap="round" stroke-linejoin="round"/>
</svg>
