<svg width="238" height="604" viewBox="0 0 238 604" fill="none" xmlns="http://www.w3.org/2000/svg">
<g clip-path="url(#clip0_1736_13628)">
<path d="M22.13 123H0V145.13H22.13V123Z" fill="#1D1D1D"/>
<path d="M22.13 153.59H0V175.72H22.13V153.59Z" fill="#1D1D1D"/>
<path d="M22.13 184.17H0V206.3H22.13V184.17Z" fill="#1D1D1D"/>
<path d="M22.13 214.76H0V236.89H22.13V214.76Z" fill="#1D1D1D"/>
<path d="M22.13 245.34H0V267.47H22.13V245.34Z" fill="#1D1D1D"/>
<path d="M22.13 275.93H0V298.06H22.13V275.93Z" fill="#1D1D1D"/>
<path d="M22.13 306.51H0V328.64H22.13V306.51Z" fill="#1D1D1D"/>
<path opacity="0.25" d="M22.13 337.1H0V359.23H22.13V337.1Z" fill="#E82126"/>
<path d="M22.13 367.68H0V389.81H22.13V367.68Z" fill="#1D1D1D"/>
<path d="M22.13 398.27H0V420.4H22.13V398.27Z" fill="#3A86FF"/>
<path d="M22.13 428.86H0V450.99H22.13V428.86Z" fill="#1D1D1D"/>
<path d="M22.13 459.44H0V481.57H22.13V459.44Z" fill="#1D1D1D"/>
<path d="M22.13 490.03H0V512.16H22.13V490.03Z" fill="#1D1D1D"/>
<path d="M22.13 520.61H0V542.74H22.13V520.61Z" fill="#1D1D1D"/>
<path d="M22.13 551.2H0V573.33H22.13V551.2Z" fill="#1D1D1D"/>
<path opacity="0.25" d="M22.13 581.78H0V603.91H22.13V581.78Z" fill="#E82126"/>
</g>
<g clip-path="url(#clip1_1736_13628)">
<path d="M237.13 92H215V114.13H237.13V92Z" fill="#1D1D1D"/>
<path d="M237.13 122.59H215V144.72H237.13V122.59Z" fill="#1D1D1D"/>
<path d="M237.13 153.17H215V175.3H237.13V153.17Z" fill="#1D1D1D"/>
<path d="M237.13 183.76H215V205.89H237.13V183.76Z" fill="#1D1D1D"/>
<path d="M237.13 214.34H215V236.47H237.13V214.34Z" fill="#1D1D1D"/>
<path d="M237.13 244.93H215V267.06H237.13V244.93Z" fill="#1D1D1D"/>
<path d="M237.13 275.51H215V297.64H237.13V275.51Z" fill="#1D1D1D"/>
<path opacity="0.25" d="M237.13 306.1H215V328.23H237.13V306.1Z" fill="#E82126"/>
<path d="M237.13 336.68H215V358.81H237.13V336.68Z" fill="#1D1D1D"/>
<path opacity="0.5" d="M237.13 367.27H215V389.4H237.13V367.27Z" fill="#3A86FF"/>
<path d="M237.13 397.86H215V419.99H237.13V397.86Z" fill="#1D1D1D"/>
<path d="M237.13 428.44H215V450.57H237.13V428.44Z" fill="#1D1D1D"/>
<path d="M237.13 459.03H215V481.16H237.13V459.03Z" fill="#1D1D1D"/>
<path d="M237.13 489.61H215V511.74H237.13V489.61Z" fill="#1D1D1D"/>
<path d="M237.13 520.2H215V542.33H237.13V520.2Z" fill="#1D1D1D"/>
<path opacity="0.25" d="M237.13 550.78H215V572.91H237.13V550.78Z" fill="#E82126"/>
</g>
<g clip-path="url(#clip2_1736_13628)">
<path d="M166.13 0H144V22.13H166.13V0Z" fill="#1D1D1D"/>
<path d="M166.13 30.5901H144V52.7201H166.13V30.5901Z" fill="#1D1D1D"/>
<path d="M166.13 61.1699H144V83.2999H166.13V61.1699Z" fill="#1D1D1D"/>
<path d="M166.13 91.76H144V113.89H166.13V91.76Z" fill="#1D1D1D"/>
<path opacity="0.25" d="M166.13 122.34H144V144.47H166.13V122.34Z" fill="#3A86FF"/>
<path d="M166.13 152.93H144V175.06H166.13V152.93Z" fill="#1D1D1D"/>
<path d="M166.13 183.51H144V205.64H166.13V183.51Z" fill="#1D1D1D"/>
<path d="M166.13 214.1H144V236.23H166.13V214.1Z" fill="#1D1D1D"/>
<path d="M166.13 244.68H144V266.81H166.13V244.68Z" fill="#1D1D1D"/>
<path opacity="0.25" d="M166.13 275.27H144V297.4H166.13V275.27Z" fill="#3A86FF"/>
<path d="M166.13 305.86H144V327.99H166.13V305.86Z" fill="#1D1D1D"/>
<path d="M166.13 336.44H144V358.57H166.13V336.44Z" fill="#1D1D1D"/>
<path d="M166.13 367.03H144V389.16H166.13V367.03Z" fill="#1D1D1D"/>
<path d="M166.13 397.61H144V419.74H166.13V397.61Z" fill="#1D1D1D"/>
<path d="M166.13 428.2H144V450.33H166.13V428.2Z" fill="#1D1D1D"/>
<path opacity="0.5" d="M166.13 458.78H144V480.91H166.13V458.78Z" fill="#E82126"/>
</g>
<g clip-path="url(#clip3_1736_13628)">
<path d="M94.13 31H72V53.13H94.13V31Z" fill="#1D1D1D"/>
<path d="M94.13 61.5901H72V83.7201H94.13V61.5901Z" fill="#1D1D1D"/>
<path d="M94.13 92.1699H72V114.3H94.13V92.1699Z" fill="#1D1D1D"/>
<path d="M94.13 122.76H72V144.89H94.13V122.76Z" fill="#1D1D1D"/>
<path opacity="0.75" d="M94.13 153.34H72V175.47H94.13V153.34Z" fill="#3A86FF"/>
<path d="M94.13 183.93H72V206.06H94.13V183.93Z" fill="#1D1D1D"/>
<path d="M94.13 214.51H72V236.64H94.13V214.51Z" fill="#1D1D1D"/>
<path d="M94.13 245.1H72V267.23H94.13V245.1Z" fill="#1D1D1D"/>
<path d="M94.13 275.68H72V297.81H94.13V275.68Z" fill="#1D1D1D"/>
<path opacity="0.25" d="M94.13 306.27H72V328.4H94.13V306.27Z" fill="#3A86FF"/>
<path d="M94.13 336.86H72V358.99H94.13V336.86Z" fill="#1D1D1D"/>
<path d="M94.13 367.44H72V389.57H94.13V367.44Z" fill="#1D1D1D"/>
<path d="M94.13 398.03H72V420.16H94.13V398.03Z" fill="#1D1D1D"/>
<path d="M94.13 428.61H72V450.74H94.13V428.61Z" fill="#1D1D1D"/>
<path d="M94.13 459.2H72V481.33H94.13V459.2Z" fill="#1D1D1D"/>
<path opacity="0.25" d="M94.13 489.78H72V511.91H94.13V489.78Z" fill="#E82126"/>
</g>
<g clip-path="url(#clip4_1736_13628)">
<path d="M202.13 511.91H180V489.78H202.13V511.91Z" fill="#1D1D1D"/>
<path d="M202.13 481.32H180V459.19H202.13V481.32Z" fill="#1D1D1D"/>
<path d="M202.13 450.74H180V428.61H202.13V450.74Z" fill="#1D1D1D"/>
<path d="M202.13 420.15H180V398.02H202.13V420.15Z" fill="#1D1D1D"/>
<path opacity="0.25" d="M202.13 389.57H180V367.44H202.13V389.57Z" fill="#3A86FF"/>
<path d="M202.13 358.98H180V336.85H202.13V358.98Z" fill="#1D1D1D"/>
<path d="M202.13 328.4H180V306.27H202.13V328.4Z" fill="#1D1D1D"/>
<path opacity="0.25" d="M202.13 297.81H180V275.68H202.13V297.81Z" fill="#E82126"/>
<path d="M202.13 267.23H180V245.1H202.13V267.23Z" fill="#1D1D1D"/>
<path d="M202.13 236.64H180V214.51H202.13V236.64Z" fill="#1D1D1D"/>
<path d="M202.13 206.05H180V183.92H202.13V206.05Z" fill="#1D1D1D"/>
<path d="M202.13 175.47H180V153.34H202.13V175.47Z" fill="#1D1D1D"/>
<path opacity="0.25" d="M202.13 144.88H180V122.75H202.13V144.88Z" fill="#E82126"/>
<path d="M202.13 114.3H180V92.1703H202.13V114.3Z" fill="#1D1D1D"/>
<path d="M202.13 83.7102H180V61.5802H202.13V83.7102Z" fill="#1D1D1D"/>
<path opacity="0.25" d="M202.13 53.1301H180V31.0001H202.13V53.1301Z" fill="#E82126"/>
</g>
<g clip-path="url(#clip5_1736_13628)">
<path d="M58.13 572.91H36V550.78H58.13V572.91Z" fill="#1D1D1D"/>
<path d="M58.13 542.32H36V520.19H58.13V542.32Z" fill="#1D1D1D"/>
<path d="M58.13 511.74H36V489.61H58.13V511.74Z" fill="#1D1D1D"/>
<path d="M58.13 481.15H36V459.02H58.13V481.15Z" fill="#1D1D1D"/>
<path opacity="0.25" d="M58.13 450.57H36V428.44H58.13V450.57Z" fill="#E82126"/>
<path d="M58.13 419.98H36V397.85H58.13V419.98Z" fill="#1D1D1D"/>
<path d="M58.13 389.4H36V367.27H58.13V389.4Z" fill="#1D1D1D"/>
<path d="M58.13 358.81H36V336.68H58.13V358.81Z" fill="#1D1D1D"/>
<path d="M58.13 328.23H36V306.1H58.13V328.23Z" fill="#1D1D1D"/>
<path opacity="0.25" d="M58.13 297.64H36V275.51H58.13V297.64Z" fill="#3A86FF"/>
<path d="M58.13 267.05H36V244.92H58.13V267.05Z" fill="#1D1D1D"/>
<path d="M58.13 236.47H36V214.34H58.13V236.47Z" fill="#1D1D1D"/>
<path d="M58.13 205.88H36V183.75H58.13V205.88Z" fill="#1D1D1D"/>
<path d="M58.13 175.3H36V153.17H58.13V175.3Z" fill="#1D1D1D"/>
<path d="M58.13 144.71H36V122.58H58.13V144.71Z" fill="#1D1D1D"/>
<path opacity="0.25" d="M58.13 114.13H36V92.0001H58.13V114.13Z" fill="#E82126"/>
</g>
<g clip-path="url(#clip6_1736_13628)">
<path d="M130.13 541.91H108V519.78H130.13V541.91Z" fill="#1D1D1D"/>
<path d="M130.13 511.32H108V489.19H130.13V511.32Z" fill="#1D1D1D"/>
<path d="M130.13 480.74H108V458.61H130.13V480.74Z" fill="#1D1D1D"/>
<path d="M130.13 450.15H108V428.02H130.13V450.15Z" fill="#1D1D1D"/>
<path d="M130.13 419.57H108V397.44H130.13V419.57Z" fill="#1D1D1D"/>
<path d="M130.13 388.98H108V366.85H130.13V388.98Z" fill="#1D1D1D"/>
<path d="M130.13 358.4H108V336.27H130.13V358.4Z" fill="#1D1D1D"/>
<path opacity="0.25" d="M130.13 327.81H108V305.68H130.13V327.81Z" fill="#E82126"/>
<path d="M130.13 297.23H108V275.1H130.13V297.23Z" fill="#1D1D1D"/>
<path d="M130.13 266.64H108V244.51H130.13V266.64Z" fill="#3A86FF"/>
<path d="M130.13 236.05H108V213.92H130.13V236.05Z" fill="#1D1D1D"/>
<path d="M130.13 205.47H108V183.34H130.13V205.47Z" fill="#1D1D1D"/>
<path opacity="0.25" d="M130.13 174.88H108V152.75H130.13V174.88Z" fill="#E82126"/>
<path d="M130.13 144.3H108V122.17H130.13V144.3Z" fill="#1D1D1D"/>
<path d="M130.13 113.71H108V91.5802H130.13V113.71Z" fill="#1D1D1D"/>
<path opacity="0.25" d="M130.13 83.1301H108V61.0001H130.13V83.1301Z" fill="#E82126"/>
</g>
<defs>
<clipPath id="clip0_1736_13628">
<rect width="22.13" height="480.91" fill="white" transform="translate(0 123)"/>
</clipPath>
<clipPath id="clip1_1736_13628">
<rect width="22.13" height="480.91" fill="white" transform="translate(215 92)"/>
</clipPath>
<clipPath id="clip2_1736_13628">
<rect width="22.13" height="480.91" fill="white" transform="translate(144)"/>
</clipPath>
<clipPath id="clip3_1736_13628">
<rect width="22.13" height="480.91" fill="white" transform="translate(72 31)"/>
</clipPath>
<clipPath id="clip4_1736_13628">
<rect width="22.13" height="480.91" fill="white" transform="matrix(1 0 0 -1 180 511.91)"/>
</clipPath>
<clipPath id="clip5_1736_13628">
<rect width="22.13" height="480.91" fill="white" transform="matrix(1 0 0 -1 36 572.91)"/>
</clipPath>
<clipPath id="clip6_1736_13628">
<rect width="22.13" height="480.91" fill="white" transform="matrix(1 0 0 -1 108 541.91)"/>
</clipPath>
</defs>
</svg>
