<svg width="238" height="605" viewBox="0 0 238 605" fill="none" xmlns="http://www.w3.org/2000/svg">
<g clip-path="url(#clip0_1736_13630)">
<path d="M22.13 123.91H0V146.04H22.13V123.91Z" fill="#1D1D1D"/>
<path d="M22.13 154.5H0V176.63H22.13V154.5Z" fill="#1D1D1D"/>
<path d="M22.13 185.08H0V207.21H22.13V185.08Z" fill="#1D1D1D"/>
<path d="M22.13 215.67H0V237.8H22.13V215.67Z" fill="#1D1D1D"/>
<path d="M22.13 246.25H0V268.38H22.13V246.25Z" fill="#1D1D1D"/>
<path d="M22.13 276.84H0V298.97H22.13V276.84Z" fill="#1D1D1D"/>
<path d="M22.13 307.42H0V329.55H22.13V307.42Z" fill="#1D1D1D"/>
<path d="M22.13 338.01H0V360.14H22.13V338.01Z" fill="#E82126"/>
<path d="M22.13 368.59H0V390.72H22.13V368.59Z" fill="#1D1D1D"/>
<path opacity="0.25" d="M22.13 399.18H0V421.31H22.13V399.18Z" fill="#3A86FF"/>
<path d="M22.13 429.77H0V451.9H22.13V429.77Z" fill="#1D1D1D"/>
<path d="M22.13 460.35H0V482.48H22.13V460.35Z" fill="#1D1D1D"/>
<path d="M22.13 490.94H0V513.07H22.13V490.94Z" fill="#1D1D1D"/>
<path d="M22.13 521.52H0V543.65H22.13V521.52Z" fill="#1D1D1D"/>
<path d="M22.13 552.11H0V574.24H22.13V552.11Z" fill="#1D1D1D"/>
<path opacity="0.25" d="M22.13 582.69H0V604.82H22.13V582.69Z" fill="#E82126"/>
</g>
<g clip-path="url(#clip1_1736_13630)">
<path d="M237.13 92.9102H215V115.04H237.13V92.9102Z" fill="#1D1D1D"/>
<path d="M237.13 123.5H215V145.63H237.13V123.5Z" fill="#1D1D1D"/>
<path d="M237.13 154.08H215V176.21H237.13V154.08Z" fill="#1D1D1D"/>
<path d="M237.13 184.67H215V206.8H237.13V184.67Z" fill="#1D1D1D"/>
<path d="M237.13 215.25H215V237.38H237.13V215.25Z" fill="#1D1D1D"/>
<path d="M237.13 245.84H215V267.97H237.13V245.84Z" fill="#1D1D1D"/>
<path d="M237.13 276.42H215V298.55H237.13V276.42Z" fill="#1D1D1D"/>
<path d="M237.13 307.01H215V329.14H237.13V307.01Z" fill="#E82126"/>
<path d="M237.13 337.59H215V359.72H237.13V337.59Z" fill="#1D1D1D"/>
<path opacity="0.25" d="M237.13 368.18H215V390.31H237.13V368.18Z" fill="#3A86FF"/>
<path d="M237.13 398.77H215V420.9H237.13V398.77Z" fill="#1D1D1D"/>
<path d="M237.13 429.35H215V451.48H237.13V429.35Z" fill="#1D1D1D"/>
<path d="M237.13 459.94H215V482.07H237.13V459.94Z" fill="#1D1D1D"/>
<path d="M237.13 490.52H215V512.65H237.13V490.52Z" fill="#1D1D1D"/>
<path d="M237.13 521.11H215V543.24H237.13V521.11Z" fill="#1D1D1D"/>
<path d="M237.13 551.69H215V573.82H237.13V551.69Z" fill="#E82126"/>
</g>
<g clip-path="url(#clip2_1736_13630)">
<path d="M166.13 0.910156H144V23.0402H166.13V0.910156Z" fill="#1D1D1D"/>
<path d="M166.13 31.5002H144V53.6302H166.13V31.5002Z" fill="#1D1D1D"/>
<path d="M166.13 62.0801H144V84.2101H166.13V62.0801Z" fill="#1D1D1D"/>
<path d="M166.13 92.6702H144V114.8H166.13V92.6702Z" fill="#1D1D1D"/>
<path opacity="0.25" d="M166.13 123.25H144V145.38H166.13V123.25Z" fill="#3A86FF"/>
<path d="M166.13 153.84H144V175.97H166.13V153.84Z" fill="#1D1D1D"/>
<path d="M166.13 184.42H144V206.55H166.13V184.42Z" fill="#1D1D1D"/>
<path d="M166.13 215.01H144V237.14H166.13V215.01Z" fill="#1D1D1D"/>
<path d="M166.13 245.59H144V267.72H166.13V245.59Z" fill="#1D1D1D"/>
<path d="M166.13 276.18H144V298.31H166.13V276.18Z" fill="#3A86FF"/>
<path d="M166.13 306.77H144V328.9H166.13V306.77Z" fill="#1D1D1D"/>
<path d="M166.13 337.35H144V359.48H166.13V337.35Z" fill="#1D1D1D"/>
<path d="M166.13 367.94H144V390.07H166.13V367.94Z" fill="#1D1D1D"/>
<path d="M166.13 398.52H144V420.65H166.13V398.52Z" fill="#1D1D1D"/>
<path d="M166.13 429.11H144V451.24H166.13V429.11Z" fill="#1D1D1D"/>
<path opacity="0.25" d="M166.13 459.69H144V481.82H166.13V459.69Z" fill="#E82126"/>
</g>
<g clip-path="url(#clip3_1736_13630)">
<path d="M94.13 31.9102H72V54.0402H94.13V31.9102Z" fill="#1D1D1D"/>
<path d="M94.13 62.5002H72V84.6302H94.13V62.5002Z" fill="#1D1D1D"/>
<path d="M94.13 93.0801H72V115.21H94.13V93.0801Z" fill="#1D1D1D"/>
<path d="M94.13 123.67H72V145.8H94.13V123.67Z" fill="#1D1D1D"/>
<path opacity="0.25" d="M94.13 154.25H72V176.38H94.13V154.25Z" fill="#3A86FF"/>
<path d="M94.13 184.84H72V206.97H94.13V184.84Z" fill="#1D1D1D"/>
<path d="M94.13 215.42H72V237.55H94.13V215.42Z" fill="#1D1D1D"/>
<path d="M94.13 246.01H72V268.14H94.13V246.01Z" fill="#1D1D1D"/>
<path d="M94.13 276.59H72V298.72H94.13V276.59Z" fill="#1D1D1D"/>
<path d="M94.13 307.18H72V329.31H94.13V307.18Z" fill="#3A86FF"/>
<path d="M94.13 337.77H72V359.9H94.13V337.77Z" fill="#1D1D1D"/>
<path d="M94.13 368.35H72V390.48H94.13V368.35Z" fill="#1D1D1D"/>
<path d="M94.13 398.94H72V421.07H94.13V398.94Z" fill="#1D1D1D"/>
<path d="M94.13 429.52H72V451.65H94.13V429.52Z" fill="#1D1D1D"/>
<path d="M94.13 460.11H72V482.24H94.13V460.11Z" fill="#1D1D1D"/>
<path d="M94.13 490.69H72V512.82H94.13V490.69Z" fill="#E82126"/>
</g>
<g clip-path="url(#clip4_1736_13630)">
<path d="M202.13 512.82H180V490.69H202.13V512.82Z" fill="#1D1D1D"/>
<path d="M202.13 482.23H180V460.1H202.13V482.23Z" fill="#1D1D1D"/>
<path d="M202.13 451.65H180V429.52H202.13V451.65Z" fill="#1D1D1D"/>
<path d="M202.13 421.06H180V398.93H202.13V421.06Z" fill="#1D1D1D"/>
<path d="M202.13 390.48H180V368.35H202.13V390.48Z" fill="#3A86FF"/>
<path d="M202.13 359.89H180V337.76H202.13V359.89Z" fill="#1D1D1D"/>
<path d="M202.13 329.31H180V307.18H202.13V329.31Z" fill="#1D1D1D"/>
<path opacity="0.25" d="M202.13 298.72H180V276.59H202.13V298.72Z" fill="#E82126"/>
<path d="M202.13 268.14H180V246.01H202.13V268.14Z" fill="#1D1D1D"/>
<path d="M202.13 237.55H180V215.42H202.13V237.55Z" fill="#1D1D1D"/>
<path d="M202.13 206.96H180V184.83H202.13V206.96Z" fill="#1D1D1D"/>
<path d="M202.13 176.38H180V154.25H202.13V176.38Z" fill="#1D1D1D"/>
<path d="M202.13 145.79H180V123.66H202.13V145.79Z" fill="#E82126"/>
<path d="M202.13 115.21H180V93.0802H202.13V115.21Z" fill="#1D1D1D"/>
<path d="M202.13 84.6201H180V62.4901H202.13V84.6201Z" fill="#1D1D1D"/>
<path opacity="0.25" d="M202.13 54.0403H180V31.9103H202.13V54.0403Z" fill="#E82126"/>
</g>
<g clip-path="url(#clip5_1736_13630)">
<path d="M58.13 573.82H36V551.69H58.13V573.82Z" fill="#1D1D1D"/>
<path d="M58.13 543.23H36V521.1H58.13V543.23Z" fill="#1D1D1D"/>
<path d="M58.13 512.65H36V490.52H58.13V512.65Z" fill="#1D1D1D"/>
<path d="M58.13 482.06H36V459.93H58.13V482.06Z" fill="#1D1D1D"/>
<path opacity="0.25" d="M58.13 451.48H36V429.35H58.13V451.48Z" fill="#E82126"/>
<path d="M58.13 420.89H36V398.76H58.13V420.89Z" fill="#1D1D1D"/>
<path d="M58.13 390.31H36V368.18H58.13V390.31Z" fill="#1D1D1D"/>
<path d="M58.13 359.72H36V337.59H58.13V359.72Z" fill="#1D1D1D"/>
<path d="M58.13 329.14H36V307.01H58.13V329.14Z" fill="#1D1D1D"/>
<path opacity="0.25" d="M58.13 298.55H36V276.42H58.13V298.55Z" fill="#3A86FF"/>
<path d="M58.13 267.96H36V245.83H58.13V267.96Z" fill="#1D1D1D"/>
<path d="M58.13 237.38H36V215.25H58.13V237.38Z" fill="#1D1D1D"/>
<path d="M58.13 206.79H36V184.66H58.13V206.79Z" fill="#1D1D1D"/>
<path d="M58.13 176.21H36V154.08H58.13V176.21Z" fill="#1D1D1D"/>
<path d="M58.13 145.62H36V123.49H58.13V145.62Z" fill="#1D1D1D"/>
<path d="M58.13 115.04H36V92.9103H58.13V115.04Z" fill="#E82126"/>
</g>
<g clip-path="url(#clip6_1736_13630)">
<path d="M130.13 542.82H108V520.69H130.13V542.82Z" fill="#1D1D1D"/>
<path d="M130.13 512.23H108V490.1H130.13V512.23Z" fill="#1D1D1D"/>
<path d="M130.13 481.65H108V459.52H130.13V481.65Z" fill="#1D1D1D"/>
<path d="M130.13 451.06H108V428.93H130.13V451.06Z" fill="#1D1D1D"/>
<path d="M130.13 420.48H108V398.35H130.13V420.48Z" fill="#1D1D1D"/>
<path d="M130.13 389.89H108V367.76H130.13V389.89Z" fill="#1D1D1D"/>
<path d="M130.13 359.31H108V337.18H130.13V359.31Z" fill="#1D1D1D"/>
<path opacity="0.25" d="M130.13 328.72H108V306.59H130.13V328.72Z" fill="#E82126"/>
<path d="M130.13 298.14H108V276.01H130.13V298.14Z" fill="#1D1D1D"/>
<path opacity="0.25" d="M130.13 267.55H108V245.42H130.13V267.55Z" fill="#3A86FF"/>
<path d="M130.13 236.96H108V214.83H130.13V236.96Z" fill="#1D1D1D"/>
<path d="M130.13 206.38H108V184.25H130.13V206.38Z" fill="#1D1D1D"/>
<path d="M130.13 175.79H108V153.66H130.13V175.79Z" fill="#E82126"/>
<path d="M130.13 145.21H108V123.08H130.13V145.21Z" fill="#1D1D1D"/>
<path d="M130.13 114.62H108V92.4901H130.13V114.62Z" fill="#1D1D1D"/>
<path opacity="0.25" d="M130.13 84.0403H108V61.9103H130.13V84.0403Z" fill="#E82126"/>
</g>
<defs>
<clipPath id="clip0_1736_13630">
<rect width="22.13" height="480.91" fill="white" transform="translate(0 123.91)"/>
</clipPath>
<clipPath id="clip1_1736_13630">
<rect width="22.13" height="480.91" fill="white" transform="translate(215 92.9102)"/>
</clipPath>
<clipPath id="clip2_1736_13630">
<rect width="22.13" height="480.91" fill="white" transform="translate(144 0.910156)"/>
</clipPath>
<clipPath id="clip3_1736_13630">
<rect width="22.13" height="480.91" fill="white" transform="translate(72 31.9102)"/>
</clipPath>
<clipPath id="clip4_1736_13630">
<rect width="22.13" height="480.91" fill="white" transform="matrix(1 0 0 -1 180 512.82)"/>
</clipPath>
<clipPath id="clip5_1736_13630">
<rect width="22.13" height="480.91" fill="white" transform="matrix(1 0 0 -1 36 573.82)"/>
</clipPath>
<clipPath id="clip6_1736_13630">
<rect width="22.13" height="480.91" fill="white" transform="matrix(1 0 0 -1 108 542.82)"/>
</clipPath>
</defs>
</svg>
