<svg width="238" height="605" viewBox="0 0 238 605" fill="none" xmlns="http://www.w3.org/2000/svg">
<g clip-path="url(#clip0_1736_13750)">
<path d="M22.13 123.82H0V145.95H22.13V123.82Z" fill="#1D1D1D"/>
<path d="M22.13 154.41H0V176.54H22.13V154.41Z" fill="#1D1D1D"/>
<path d="M22.13 184.99H0V207.12H22.13V184.99Z" fill="#1D1D1D"/>
<path d="M22.13 215.58H0V237.71H22.13V215.58Z" fill="#1D1D1D"/>
<path d="M22.13 246.16H0V268.29H22.13V246.16Z" fill="#1D1D1D"/>
<path d="M22.13 276.75H0V298.88H22.13V276.75Z" fill="#1D1D1D"/>
<path d="M22.13 307.33H0V329.46H22.13V307.33Z" fill="#1D1D1D"/>
<path opacity="0.25" d="M22.13 337.92H0V360.05H22.13V337.92Z" fill="#E82126"/>
<path d="M22.13 368.5H0V390.63H22.13V368.5Z" fill="#1D1D1D"/>
<path opacity="0.25" d="M22.13 399.09H0V421.22H22.13V399.09Z" fill="#3A86FF"/>
<path d="M22.13 429.68H0V451.81H22.13V429.68Z" fill="#1D1D1D"/>
<path d="M22.13 460.26H0V482.39H22.13V460.26Z" fill="#1D1D1D"/>
<path d="M22.13 490.85H0V512.98H22.13V490.85Z" fill="#1D1D1D"/>
<path d="M22.13 521.43H0V543.56H22.13V521.43Z" fill="#1D1D1D"/>
<path d="M22.13 552.02H0V574.15H22.13V552.02Z" fill="#1D1D1D"/>
<path d="M22.13 582.6H0V604.73H22.13V582.6Z" fill="#E82126"/>
</g>
<g clip-path="url(#clip1_1736_13750)">
<path d="M237.13 92.8202H215V114.95H237.13V92.8202Z" fill="#1D1D1D"/>
<path d="M237.13 123.41H215V145.54H237.13V123.41Z" fill="#1D1D1D"/>
<path d="M237.13 153.99H215V176.12H237.13V153.99Z" fill="#1D1D1D"/>
<path d="M237.13 184.58H215V206.71H237.13V184.58Z" fill="#1D1D1D"/>
<path d="M237.13 215.16H215V237.29H237.13V215.16Z" fill="#1D1D1D"/>
<path d="M237.13 245.75H215V267.88H237.13V245.75Z" fill="#1D1D1D"/>
<path d="M237.13 276.33H215V298.46H237.13V276.33Z" fill="#1D1D1D"/>
<path opacity="0.25" d="M237.13 306.92H215V329.05H237.13V306.92Z" fill="#E82126"/>
<path d="M237.13 337.5H215V359.63H237.13V337.5Z" fill="#1D1D1D"/>
<path d="M237.13 368.09H215V390.22H237.13V368.09Z" fill="#3A86FF"/>
<path d="M237.13 398.68H215V420.81H237.13V398.68Z" fill="#1D1D1D"/>
<path d="M237.13 429.26H215V451.39H237.13V429.26Z" fill="#1D1D1D"/>
<path d="M237.13 459.85H215V481.98H237.13V459.85Z" fill="#1D1D1D"/>
<path d="M237.13 490.43H215V512.56H237.13V490.43Z" fill="#1D1D1D"/>
<path d="M237.13 521.02H215V543.15H237.13V521.02Z" fill="#1D1D1D"/>
<path opacity="0.25" d="M237.13 551.6H215V573.73H237.13V551.6Z" fill="#E82126"/>
</g>
<g clip-path="url(#clip2_1736_13750)">
<path d="M166.13 0.82019H144V22.9502H166.13V0.82019Z" fill="#1D1D1D"/>
<path d="M166.13 31.4102H144V53.5402H166.13V31.4102Z" fill="#1D1D1D"/>
<path d="M166.13 61.9902H144V84.1202H166.13V61.9902Z" fill="#1D1D1D"/>
<path d="M166.13 92.5802H144V114.71H166.13V92.5802Z" fill="#1D1D1D"/>
<path d="M166.13 123.16H144V145.29H166.13V123.16Z" fill="#3A86FF"/>
<path d="M166.13 153.75H144V175.88H166.13V153.75Z" fill="#1D1D1D"/>
<path d="M166.13 184.33H144V206.46H166.13V184.33Z" fill="#1D1D1D"/>
<path d="M166.13 214.92H144V237.05H166.13V214.92Z" fill="#1D1D1D"/>
<path d="M166.13 245.5H144V267.63H166.13V245.5Z" fill="#1D1D1D"/>
<path opacity="0.25" d="M166.13 276.09H144V298.22H166.13V276.09Z" fill="#3A86FF"/>
<path d="M166.13 306.68H144V328.81H166.13V306.68Z" fill="#1D1D1D"/>
<path d="M166.13 337.26H144V359.39H166.13V337.26Z" fill="#1D1D1D"/>
<path d="M166.13 367.85H144V389.98H166.13V367.85Z" fill="#1D1D1D"/>
<path d="M166.13 398.43H144V420.56H166.13V398.43Z" fill="#1D1D1D"/>
<path d="M166.13 429.02H144V451.15H166.13V429.02Z" fill="#1D1D1D"/>
<path d="M166.13 459.6H144V481.73H166.13V459.6Z" fill="#E82126"/>
</g>
<g clip-path="url(#clip3_1736_13750)">
<path d="M94.13 31.8202H72V53.9502H94.13V31.8202Z" fill="#1D1D1D"/>
<path d="M94.13 62.4102H72V84.5402H94.13V62.4102Z" fill="#1D1D1D"/>
<path d="M94.13 92.9902H72V115.12H94.13V92.9902Z" fill="#1D1D1D"/>
<path d="M94.13 123.58H72V145.71H94.13V123.58Z" fill="#1D1D1D"/>
<path d="M94.13 154.16H72V176.29H94.13V154.16Z" fill="#3A86FF"/>
<path d="M94.13 184.75H72V206.88H94.13V184.75Z" fill="#1D1D1D"/>
<path d="M94.13 215.33H72V237.46H94.13V215.33Z" fill="#1D1D1D"/>
<path d="M94.13 245.92H72V268.05H94.13V245.92Z" fill="#1D1D1D"/>
<path d="M94.13 276.5H72V298.63H94.13V276.5Z" fill="#1D1D1D"/>
<path opacity="0.25" d="M94.13 307.09H72V329.22H94.13V307.09Z" fill="#3A86FF"/>
<path d="M94.13 337.68H72V359.81H94.13V337.68Z" fill="#1D1D1D"/>
<path d="M94.13 368.26H72V390.39H94.13V368.26Z" fill="#1D1D1D"/>
<path d="M94.13 398.85H72V420.98H94.13V398.85Z" fill="#1D1D1D"/>
<path d="M94.13 429.43H72V451.56H94.13V429.43Z" fill="#1D1D1D"/>
<path d="M94.13 460.02H72V482.15H94.13V460.02Z" fill="#1D1D1D"/>
<path opacity="0.25" d="M94.13 490.6H72V512.73H94.13V490.6Z" fill="#E82126"/>
</g>
<g clip-path="url(#clip4_1736_13750)">
<path d="M202.13 512.73H180V490.6H202.13V512.73Z" fill="#1D1D1D"/>
<path d="M202.13 482.14H180V460.01H202.13V482.14Z" fill="#1D1D1D"/>
<path d="M202.13 451.56H180V429.43H202.13V451.56Z" fill="#1D1D1D"/>
<path d="M202.13 420.97H180V398.84H202.13V420.97Z" fill="#1D1D1D"/>
<path opacity="0.25" d="M202.13 390.39H180V368.26H202.13V390.39Z" fill="#3A86FF"/>
<path d="M202.13 359.8H180V337.67H202.13V359.8Z" fill="#1D1D1D"/>
<path d="M202.13 329.22H180V307.09H202.13V329.22Z" fill="#1D1D1D"/>
<path d="M202.13 298.63H180V276.5H202.13V298.63Z" fill="#E82126"/>
<path d="M202.13 268.05H180V245.92H202.13V268.05Z" fill="#1D1D1D"/>
<path d="M202.13 237.46H180V215.33H202.13V237.46Z" fill="#1D1D1D"/>
<path d="M202.13 206.87H180V184.74H202.13V206.87Z" fill="#1D1D1D"/>
<path d="M202.13 176.29H180V154.16H202.13V176.29Z" fill="#1D1D1D"/>
<path opacity="0.25" d="M202.13 145.7H180V123.57H202.13V145.7Z" fill="#E82126"/>
<path d="M202.13 115.12H180V92.9902H202.13V115.12Z" fill="#1D1D1D"/>
<path d="M202.13 84.5303H180V62.4003H202.13V84.5303Z" fill="#1D1D1D"/>
<path d="M202.13 53.9502H180V31.8202H202.13V53.9502Z" fill="#E82126"/>
</g>
<g clip-path="url(#clip5_1736_13750)">
<path d="M58.13 573.73H36V551.6H58.13V573.73Z" fill="#1D1D1D"/>
<path d="M58.13 543.14H36V521.01H58.13V543.14Z" fill="#1D1D1D"/>
<path d="M58.13 512.56H36V490.43H58.13V512.56Z" fill="#1D1D1D"/>
<path d="M58.13 481.97H36V459.84H58.13V481.97Z" fill="#1D1D1D"/>
<path d="M58.13 451.39H36V429.26H58.13V451.39Z" fill="#E82126"/>
<path d="M58.13 420.8H36V398.67H58.13V420.8Z" fill="#1D1D1D"/>
<path d="M58.13 390.22H36V368.09H58.13V390.22Z" fill="#1D1D1D"/>
<path d="M58.13 359.63H36V337.5H58.13V359.63Z" fill="#1D1D1D"/>
<path d="M58.13 329.05H36V306.92H58.13V329.05Z" fill="#1D1D1D"/>
<path d="M58.13 298.46H36V276.33H58.13V298.46Z" fill="#3A86FF"/>
<path d="M58.13 267.87H36V245.74H58.13V267.87Z" fill="#1D1D1D"/>
<path d="M58.13 237.29H36V215.16H58.13V237.29Z" fill="#1D1D1D"/>
<path d="M58.13 206.7H36V184.57H58.13V206.7Z" fill="#1D1D1D"/>
<path d="M58.13 176.12H36V153.99H58.13V176.12Z" fill="#1D1D1D"/>
<path d="M58.13 145.53H36V123.4H58.13V145.53Z" fill="#1D1D1D"/>
<path opacity="0.25" d="M58.13 114.95H36V92.8202H58.13V114.95Z" fill="#E82126"/>
</g>
<g clip-path="url(#clip6_1736_13750)">
<path d="M130.13 542.73H108V520.6H130.13V542.73Z" fill="#1D1D1D"/>
<path d="M130.13 512.14H108V490.01H130.13V512.14Z" fill="#1D1D1D"/>
<path d="M130.13 481.56H108V459.43H130.13V481.56Z" fill="#1D1D1D"/>
<path d="M130.13 450.97H108V428.84H130.13V450.97Z" fill="#1D1D1D"/>
<path d="M130.13 420.39H108V398.26H130.13V420.39Z" fill="#1D1D1D"/>
<path d="M130.13 389.8H108V367.67H130.13V389.8Z" fill="#1D1D1D"/>
<path d="M130.13 359.22H108V337.09H130.13V359.22Z" fill="#1D1D1D"/>
<path opacity="0.25" d="M130.13 328.63H108V306.5H130.13V328.63Z" fill="#E82126"/>
<path d="M130.13 298.05H108V275.92H130.13V298.05Z" fill="#1D1D1D"/>
<path opacity="0.25" d="M130.13 267.46H108V245.33H130.13V267.46Z" fill="#3A86FF"/>
<path d="M130.13 236.87H108V214.74H130.13V236.87Z" fill="#1D1D1D"/>
<path d="M130.13 206.29H108V184.16H130.13V206.29Z" fill="#1D1D1D"/>
<path opacity="0.25" d="M130.13 175.7H108V153.57H130.13V175.7Z" fill="#E82126"/>
<path d="M130.13 145.12H108V122.99H130.13V145.12Z" fill="#1D1D1D"/>
<path d="M130.13 114.53H108V92.4003H130.13V114.53Z" fill="#1D1D1D"/>
<path d="M130.13 83.9502H108V61.8202H130.13V83.9502Z" fill="#E82126"/>
</g>
<defs>
<clipPath id="clip0_1736_13750">
<rect width="22.13" height="480.91" fill="white" transform="translate(0 123.82)"/>
</clipPath>
<clipPath id="clip1_1736_13750">
<rect width="22.13" height="480.91" fill="white" transform="translate(215 92.8202)"/>
</clipPath>
<clipPath id="clip2_1736_13750">
<rect width="22.13" height="480.91" fill="white" transform="translate(144 0.82019)"/>
</clipPath>
<clipPath id="clip3_1736_13750">
<rect width="22.13" height="480.91" fill="white" transform="translate(72 31.8202)"/>
</clipPath>
<clipPath id="clip4_1736_13750">
<rect width="22.13" height="480.91" fill="white" transform="matrix(1 0 0 -1 180 512.73)"/>
</clipPath>
<clipPath id="clip5_1736_13750">
<rect width="22.13" height="480.91" fill="white" transform="matrix(1 0 0 -1 36 573.73)"/>
</clipPath>
<clipPath id="clip6_1736_13750">
<rect width="22.13" height="480.91" fill="white" transform="matrix(1 0 0 -1 108 542.73)"/>
</clipPath>
</defs>
</svg>
